<svg width="32" height="21" viewBox="0 0 32 21" fill="none" xmlns="http://www.w3.org/2000/svg">
<path d="M31.5312 4.92338C31.7902 4.92338 32 4.71357 32 4.45463V1.78645C32 1.63357 31.9254 1.49026 31.8002 1.40251C31.6749 1.31476 31.5148 1.29357 31.3711 1.34588C29.1242 2.16295 26.3384 2.63145 23.5268 2.66507C20.8257 2.69588 18.3442 2.31145 16.7178 1.60638C16.7155 1.60538 16.7133 1.60445 16.711 1.60351C13.4038 0.230696 9.81512 -0.263991 6.04856 0.132384C3.97106 0.333446 2.09588 0.729509 0.315875 1.34332C0.126875 1.40851 0 1.58645 0 1.78645V18.6141C0 18.7656 0.07325 18.9078 0.196625 18.9957C0.319937 19.0837 0.47825 19.1066 0.621562 19.0571C2.33094 18.4677 4.13569 18.0869 6.14281 17.8927C9.75456 17.5125 13.1882 17.9846 16.3483 19.2956C18.0994 20.0539 20.5652 20.4284 23.1833 20.4284C26.0899 20.4284 29.1838 19.9663 31.6914 19.0546C31.8767 18.9872 32 18.8111 32 18.614V6.60938C32 6.35045 31.7902 6.14063 31.5312 6.14063C31.2723 6.14063 31.0625 6.35045 31.0625 6.60938V18.2824C28.8717 19.0321 26.211 19.4606 23.5268 19.4927C20.8265 19.5256 18.3442 19.1392 16.7178 18.434C16.7155 18.433 16.7133 18.4321 16.711 18.4311C13.4038 17.0583 9.81519 16.5636 6.04862 16.96C4.21138 17.1378 2.53238 17.4681 0.937563 17.9666V2.12332C2.55338 1.59407 4.259 1.24738 6.14288 1.06507C9.75469 0.684758 13.1882 1.15682 16.3485 2.46801C19.8842 3.99907 26.3368 3.96638 31.0626 2.44238V4.45457C31.0625 4.71357 31.2723 4.92338 31.5312 4.92338Z" fill="#139E19"/>
<path d="M29.3437 15.5013C29.6027 15.5013 29.8125 15.2915 29.8125 15.0325V6.65447C29.8125 6.39553 29.6027 6.18572 29.3437 6.18572C28.6114 6.18572 27.9872 5.66353 27.8596 4.94403C27.8154 4.69528 27.5821 4.52653 27.3319 4.56191C23.0267 5.17553 18.6324 4.81484 15.8636 3.62028C15.8615 3.61934 15.8594 3.61853 15.8572 3.6176C12.8951 2.39122 9.67062 1.95072 6.2715 2.30853L6.25931 2.30978C5.66106 2.36766 5.0735 2.44416 4.51312 2.53728C4.387 2.55822 4.27488 2.62972 4.20281 2.73535C4.13069 2.84091 4.10487 2.97141 4.13125 3.09647C4.15281 3.19866 4.16375 3.30384 4.16375 3.40928C4.16375 4.24047 3.48756 4.91666 2.65631 4.91666C2.39737 4.91666 2.18756 5.12647 2.18756 5.38541V9.84116C2.18756 10.1001 2.39737 10.3099 2.65631 10.3099C2.91525 10.3099 3.12506 10.1001 3.12506 9.84116V5.80903C4.24969 5.58978 5.10125 4.59703 5.10125 3.40928C5.10125 3.40428 5.10125 3.39922 5.10119 3.39422C5.50706 3.33472 5.92469 3.28403 6.3465 3.24322L6.37187 3.24072C9.61031 2.8996 12.6803 3.3176 15.4957 4.48266C18.3254 5.70216 22.7224 6.10234 27.0566 5.54534C27.3549 6.33659 28.0446 6.91766 28.8751 7.07853V14.609C27.7504 14.8282 26.8989 15.821 26.8989 17.0088C26.8989 17.0172 26.8989 17.0257 26.899 17.0341C25.7927 17.2005 24.6517 17.2917 23.5007 17.3055C21.0959 17.3337 18.9409 17.0137 17.5876 16.4269L17.5497 16.4108C14.719 15.2358 11.6882 14.64 8.54156 14.64C7.64912 14.64 6.73506 14.6884 5.82856 14.7836C5.5325 14.8123 5.23712 14.8452 4.94631 14.8816C4.64944 14.0864 3.9585 13.5025 3.125 13.3413V12.0297C3.125 11.7707 2.91519 11.5609 2.65625 11.5609C2.39731 11.5609 2.1875 11.7707 2.1875 12.0297V13.7653C2.1875 14.0243 2.39731 14.2341 2.65625 14.2341C3.39081 14.2341 4.01531 14.7582 4.14119 15.4803C4.18456 15.7293 4.4175 15.8987 4.66769 15.8642C5.07525 15.8073 5.49625 15.7578 5.92262 15.7163C6.80044 15.6242 7.68156 15.5775 8.54144 15.5775C11.5641 15.5775 14.474 16.1492 17.1897 17.2765L17.2149 17.2872C18.6262 17.8992 20.7985 18.2447 23.2109 18.2447C23.3108 18.2447 23.4112 18.244 23.5118 18.2428C24.8627 18.2267 26.2013 18.1076 27.4902 17.8888C27.6164 17.8674 27.7282 17.7955 27.7999 17.6896C27.8716 17.5837 27.897 17.4531 27.8701 17.3281C27.8476 17.2238 27.8362 17.1164 27.8362 17.0088C27.8363 16.1775 28.5125 15.5013 29.3437 15.5013Z" fill="#139E19"/>
<path d="M25.3268 11.6736C25.3268 10.7188 24.5499 9.94189 23.595 9.94189C22.6402 9.94189 21.8633 10.7188 21.8633 11.6736C21.8633 12.6285 22.6402 13.4054 23.595 13.4054C24.5499 13.4054 25.3268 12.6285 25.3268 11.6736ZM22.8008 11.6736C22.8008 11.2357 23.1571 10.8794 23.595 10.8794C24.033 10.8794 24.3893 11.2357 24.3893 11.6736C24.3893 12.1116 24.033 12.4679 23.595 12.4679C23.1571 12.4679 22.8008 12.1116 22.8008 11.6736Z" fill="#139E19"/>
<path d="M13.293 11.2932C13.034 11.2932 12.8242 11.5031 12.8242 11.762C12.8242 12.0209 13.034 12.2307 13.293 12.2307H14.0589V13.187C14.0589 13.4459 14.2687 13.6557 14.5277 13.6557C14.7866 13.6557 14.9964 13.4459 14.9964 13.187V12.2307H17.4085C17.6675 12.2307 17.8773 12.0209 17.8773 11.762C17.8773 11.5031 17.6675 11.2932 17.4085 11.2932H14.9964V10.3864H17.4085C18.3478 10.3864 19.112 9.62224 19.112 8.68299C19.112 7.74374 18.3478 6.97955 17.4085 6.97955H14.5277C14.2687 6.97955 14.0589 7.18937 14.0589 7.4483V9.44893H13.293C13.034 9.44893 12.8242 9.65874 12.8242 9.91768C12.8242 10.1766 13.034 10.3864 13.293 10.3864H14.0589V11.2932H13.293ZM14.9964 7.91712H17.4085C17.8309 7.91712 18.1745 8.26068 18.1745 8.68305C18.1745 9.10543 17.8309 9.44899 17.4085 9.44899H14.9964V7.91712Z" fill="#139E19"/>
<path d="M10.0768 8.75891C10.0768 7.80404 9.2999 7.02716 8.34503 7.02716C7.39016 7.02716 6.61328 7.80404 6.61328 8.75891C6.61328 9.71378 7.39016 10.4907 8.34503 10.4907C9.2999 10.4907 10.0768 9.71385 10.0768 8.75891ZM7.55078 8.75891C7.55078 8.32097 7.90709 7.96466 8.34503 7.96466C8.78297 7.96466 9.13928 8.32097 9.13928 8.75891C9.13928 9.19685 8.78297 9.55316 8.34503 9.55316C7.90709 9.55316 7.55078 9.19685 7.55078 8.75891Z" fill="#139E19"/>
</svg>
