<svg width="14" height="13" viewBox="0 0 14 13" fill="none" xmlns="http://www.w3.org/2000/svg">
<path d="M11.9492 8.40434C11.1864 7.6959 10.2785 7.17285 9.28865 6.85547C10.3496 6.17754 11.0469 5.04258 11.0469 3.75781C11.0469 1.68594 9.23125 0 7 0C4.76875 0 2.95312 1.68594 2.95312 3.75781C2.95312 5.04003 3.65039 6.17754 4.71133 6.85547C3.72149 7.17285 2.81368 7.6959 2.05078 8.40434C0.727344 9.63064 0 11.2633 0 13H1.09375C1.09375 9.97596 3.74336 7.51562 7 7.51562C10.2567 7.51562 12.9062 9.97596 12.9062 13H14C14 11.2633 13.2726 9.63064 11.9492 8.40434ZM7 6.5C5.37031 6.5 4.04688 5.27109 4.04688 3.75781C4.04688 2.24453 5.37031 1.01562 7 1.01562C8.62969 1.01562 9.95312 2.24453 9.95312 3.75781C9.95312 5.27109 8.62969 6.5 7 6.5Z" fill="#E73939"/>
</svg>
